<mxfile host="app.diagrams.net" modified="2024-04-23T08:23:52.687Z" agent="Mozilla/5.0 (Windows NT 10.0; Win64; x64; rv:109.0) Gecko/20100101 Firefox/115.0" version="24.2.8" etag="vyJhLPBo95sdD8qwUtz_" type="github">
  <diagram name="Seite-1" id="z2ITt8m9-14jiarlUbwR">
    <mxGraphModel>
      <root>
        <mxCell id="0" />
        <mxCell id="1" parent="0" />
      </root>
    </mxGraphModel>
  </diagram>
</mxfile>
